<?xml version="1.0" standalone="no"?>
<!DOCTYPE svg PUBLIC "-//W3C//DTD SVG 20010904//EN"
 "http://www.w3.org/TR/2001/REC-SVG-20010904/DTD/svg10.dtd">
<svg version="1.0" xmlns="http://www.w3.org/2000/svg"
 width="1000.000000pt" height="1000.000000pt" viewBox="0 0 1000.000000 1000.000000"
 preserveAspectRatio="xMidYMid meet">

<g transform="translate(0.000000,1000.000000) scale(0.100000,-0.100000)"
fill="#ffffff" stroke="none" stroke-width="0" opacity="1">
<path d="M0 5000 l0 -5000 5000 0 5000 0 0 5000 0 5000 -5000 0 -5000 0 0
-5000z m4450 1642 c88 -24 216 -70 284 -102 142 -71 362 -228 380 -272 6 -16
-12 -64 -42 -109 -28 -44 -52 -81 -52 -85 0 -3 84 15 185 40 506 126 1103 52
1458 -187 116 -78 276 -224 276 -252 0 -18 -544 -796 -552 -787 -5 6 12 68 35
144 92 319 -10 644 -264 845 -268 213 -728 261 -1111 119 -96 -36 -112 -52
-209 -210 l-107 -174 -10 97 -10 96 -101 -106 c-119 -128 -198 -258 -261 -433
-61 -174 -60 -198 21 -214 35 -6 157 -59 271 -114 336 -164 506 -367 546 -652
47 -325 -88 -656 -349 -850 l-92 -69 127 -119 c160 -145 342 -252 548 -322 141 -49 190 -53 409 -55 176 0 288 10 380 35 184 51 445 183 558 286 172 153 137 56 -41 -119 -130 -128 -204 -183 -336 -247 -274 -133 -380 -155 -759 -154 -299 1 -345 5 -510 67 -287 87 -542 224 -717 385 l-83 78 -380 1 c-356 0 -393 3 -561 55 -224 68 -434 171 -579 285 l-112 89 46 79 c27 44 113 188 196 325 l151 243 13 -160 c7 -86 23 -188 35 -225 82 -238 338 -444 665 -535 118 -33 440 -66 440 -43 0 8 -32 55 -72 106 -93 123 -238 417 -283 581 -28 101 -36 204 -36 473 l0 345 -143 42 c-326 98 -629 293 -762 490 -208 314 -182 753 60 1015 169 185 368 290 655 345 209 40 600 26 812 -28z m2540 -1121 c14 -24 -23 -48 -48 -32 -21 13 -8 56 17 56 9 0 21 -10 31 -24z m148 -226 l-58 -58 -48 52 -48 52 46 55 47 55 61 -51 61 -51 -59 -58z m-1682 -2777 c0 -10 -9 -20 -20 -20 -11 0 -20 9 -20 20 0 11 9 20 20 20 11 0 20 -9 20 -20z m152 -208 l-42 -66 -53 60 -56 58 46 56 45 56 51 -50 54 -50 -44 -64z m88 -123 c0 -16 -8 -30 -20 -30 -26 0 -44 31 -27 51 20 20 47 8 47 -21z"/>
<path d="M3588 6600 c-202 -40 -336 -139 -410 -302 -40 -88 -48 -137 -48 -306 0 -174 6 -214 52 -310 67 -145 156 -243 294 -327 148 -88 488 -208 500 -176 4 14 52 94 106 178 116 182 274 344 467 478 76 51 140 110 140 127 0 72 -124 288 -220 384 -210 210 -584 318 -881 252z"/>
<path d="M4252 4556 c20 -200 70 -443 116 -564 90 -238 262 -532 312 -532 32 0 113 144 148 260 42 140 40 348 -2 480 -48 150 -176 284 -352 367 -80 38 -164 74 -188 82 -42 12 -43 7 -34 -93z"/>
</g>
</svg>
